<mxfile host="app.diagrams.net" modified="2022-04-27T14:55:05.544Z" agent="5.0 (Windows NT 10.0; Win64; x64) AppleWebKit/537.36 (KHTML, like Gecko) Chrome/100.0.4896.127 Safari/537.36" etag="6-vBeJuRqWBoCCT07W6i" version="17.4.6" type="github">
  <diagram id="STSoD5pdbRrz0Mg4sfEC" name="Page-1">
    <mxGraphModel dx="1242" dy="1344" grid="1" gridSize="10" guides="1" tooltips="1" connect="1" arrows="1" fold="1" page="1" pageScale="1" pageWidth="850" pageHeight="1100" math="0" shadow="0">
      <root>
        <mxCell id="0" />
        <mxCell id="1" parent="0" />
        <mxCell id="HO5P-E8_m9CeNCrXjNnz-1" value="&lt;font style=&quot;font-size: 30px&quot; color=&quot;#ff0000&quot;&gt;MIRRORED&lt;br&gt;HEADLIGHTS-&lt;br&gt;-induced&lt;br&gt;PARALYSIS&lt;br&gt;&lt;/font&gt;" style="text;html=1;align=center;verticalAlign=middle;resizable=0;points=[];autosize=1;strokeColor=none;fillColor=none;" vertex="1" parent="1">
          <mxGeometry x="160" y="180" width="220" height="90" as="geometry" />
        </mxCell>
        <mxCell id="HO5P-E8_m9CeNCrXjNnz-2" value="HEAD-LIGHTS" style="text;html=1;align=center;verticalAlign=middle;resizable=0;points=[];autosize=1;strokeColor=none;fillColor=none;fontSize=30;fontColor=#FF0000;" vertex="1" parent="1">
          <mxGeometry x="490" y="210" width="220" height="40" as="geometry" />
        </mxCell>
        <mxCell id="HO5P-E8_m9CeNCrXjNnz-3" value="" style="shape=partialRectangle;whiteSpace=wrap;html=1;bottom=1;right=1;left=1;top=0;fillColor=none;routingCenterX=-0.5;fontSize=30;fontColor=#FF0000;strokeColor=#FF0000;strokeWidth=2;" vertex="1" parent="1">
          <mxGeometry x="540" y="480" width="120" height="30" as="geometry" />
        </mxCell>
        <mxCell id="HO5P-E8_m9CeNCrXjNnz-4" value="QUALIA" style="text;html=1;align=center;verticalAlign=middle;resizable=0;points=[];autosize=1;strokeColor=none;fillColor=none;fontSize=30;fontColor=#FF0000;rotation=90;" vertex="1" parent="1">
          <mxGeometry x="535" y="380" width="130" height="40" as="geometry" />
        </mxCell>
        <mxCell id="HO5P-E8_m9CeNCrXjNnz-6" value="SWEEP" style="text;html=1;align=center;verticalAlign=middle;resizable=0;points=[];autosize=1;strokeColor=none;fillColor=none;fontSize=20;fontColor=#FF0000;" vertex="1" parent="1">
          <mxGeometry x="555" y="300" width="90" height="30" as="geometry" />
        </mxCell>
        <mxCell id="HO5P-E8_m9CeNCrXjNnz-7" value="SOCKET" style="text;html=1;align=center;verticalAlign=middle;resizable=0;points=[];autosize=1;strokeColor=none;fillColor=none;fontSize=20;fontColor=#FF0000;" vertex="1" parent="1">
          <mxGeometry x="440" y="480" width="100" height="30" as="geometry" />
        </mxCell>
        <mxCell id="HO5P-E8_m9CeNCrXjNnz-8" value="SOCLU" style="text;html=1;align=center;verticalAlign=middle;resizable=0;points=[];autosize=1;strokeColor=none;fillColor=none;fontSize=20;fontColor=#FF0000;" vertex="1" parent="1">
          <mxGeometry x="665" y="480" width="80" height="30" as="geometry" />
        </mxCell>
        <mxCell id="HO5P-E8_m9CeNCrXjNnz-9" value="" style="ellipse;whiteSpace=wrap;html=1;fontSize=20;fontColor=#FF0000;strokeColor=#FF0000;strokeWidth=2;fillColor=none;" vertex="1" parent="1">
          <mxGeometry x="585" y="470" width="30" height="20" as="geometry" />
        </mxCell>
        <mxCell id="HO5P-E8_m9CeNCrXjNnz-10" value="" style="endArrow=none;html=1;fontSize=20;fontColor=#FF0000;strokeColor=#FF0000;strokeWidth=2;entryX=0.411;entryY=0.984;entryDx=0;entryDy=0;entryPerimeter=0;curved=1;" edge="1" parent="1" target="HO5P-E8_m9CeNCrXjNnz-3">
          <mxGeometry width="50" height="50" relative="1" as="geometry">
            <mxPoint x="570" y="470" as="sourcePoint" />
            <mxPoint x="570" y="500" as="targetPoint" />
            <Array as="points">
              <mxPoint x="590" y="480" />
            </Array>
          </mxGeometry>
        </mxCell>
        <mxCell id="HO5P-E8_m9CeNCrXjNnz-11" value="" style="endArrow=none;html=1;fontSize=20;fontColor=#FF0000;strokeColor=#FF0000;strokeWidth=2;curved=1;exitX=0.577;exitY=1.016;exitDx=0;exitDy=0;exitPerimeter=0;" edge="1" parent="1" source="HO5P-E8_m9CeNCrXjNnz-3">
          <mxGeometry width="50" height="50" relative="1" as="geometry">
            <mxPoint x="520" y="550" as="sourcePoint" />
            <mxPoint x="630" y="470" as="targetPoint" />
            <Array as="points">
              <mxPoint x="610" y="480" />
            </Array>
          </mxGeometry>
        </mxCell>
        <mxCell id="HO5P-E8_m9CeNCrXjNnz-12" value="" style="endArrow=none;dashed=1;html=1;fontSize=20;fontColor=#FF0000;strokeColor=#FF0000;strokeWidth=2;rounded=0;" edge="1" parent="1">
          <mxGeometry width="50" height="50" relative="1" as="geometry">
            <mxPoint x="460" y="300" as="sourcePoint" />
            <mxPoint x="580" y="490" as="targetPoint" />
          </mxGeometry>
        </mxCell>
        <mxCell id="HO5P-E8_m9CeNCrXjNnz-13" value="" style="endArrow=none;dashed=1;html=1;rounded=0;fontSize=20;fontColor=#FF0000;strokeColor=#FF0000;strokeWidth=2;exitX=0.667;exitY=0.333;exitDx=0;exitDy=0;exitPerimeter=0;" edge="1" parent="1" source="HO5P-E8_m9CeNCrXjNnz-3">
          <mxGeometry width="50" height="50" relative="1" as="geometry">
            <mxPoint x="660" y="460" as="sourcePoint" />
            <mxPoint x="740" y="300" as="targetPoint" />
          </mxGeometry>
        </mxCell>
        <mxCell id="HO5P-E8_m9CeNCrXjNnz-14" value="" style="endArrow=classic;html=1;fontSize=20;fontColor=#FF0000;strokeColor=#FF0000;strokeWidth=2;curved=1;exitX=0.99;exitY=0.736;exitDx=0;exitDy=0;exitPerimeter=0;" edge="1" parent="1" source="HO5P-E8_m9CeNCrXjNnz-6">
          <mxGeometry width="50" height="50" relative="1" as="geometry">
            <mxPoint x="645" y="330" as="sourcePoint" />
            <mxPoint x="700" y="350" as="targetPoint" />
            <Array as="points">
              <mxPoint x="680" y="320" />
            </Array>
          </mxGeometry>
        </mxCell>
        <mxCell id="HO5P-E8_m9CeNCrXjNnz-15" value="" style="endArrow=classic;html=1;fontSize=20;fontColor=#FF0000;strokeColor=#FF0000;strokeWidth=2;curved=1;exitX=-0.018;exitY=0.671;exitDx=0;exitDy=0;exitPerimeter=0;" edge="1" parent="1" source="HO5P-E8_m9CeNCrXjNnz-6">
          <mxGeometry width="50" height="50" relative="1" as="geometry">
            <mxPoint x="520" y="460" as="sourcePoint" />
            <mxPoint x="500" y="350" as="targetPoint" />
            <Array as="points">
              <mxPoint x="520" y="320" />
            </Array>
          </mxGeometry>
        </mxCell>
        <mxCell id="HO5P-E8_m9CeNCrXjNnz-16" value="" style="endArrow=none;html=1;fontSize=20;fontColor=#FF0000;strokeColor=#FF0000;strokeWidth=2;curved=1;" edge="1" parent="1">
          <mxGeometry width="50" height="50" relative="1" as="geometry">
            <mxPoint x="480" y="320" as="sourcePoint" />
            <mxPoint x="720" y="320" as="targetPoint" />
            <Array as="points">
              <mxPoint x="600" y="270" />
            </Array>
          </mxGeometry>
        </mxCell>
        <mxCell id="HO5P-E8_m9CeNCrXjNnz-17" value="" style="endArrow=none;html=1;fontSize=20;fontColor=#FF0000;strokeColor=#FF0000;strokeWidth=2;curved=1;" edge="1" parent="1">
          <mxGeometry width="50" height="50" relative="1" as="geometry">
            <mxPoint x="480" y="310" as="sourcePoint" />
            <mxPoint x="720" y="310" as="targetPoint" />
            <Array as="points">
              <mxPoint x="600" y="260" />
            </Array>
          </mxGeometry>
        </mxCell>
        <mxCell id="HO5P-E8_m9CeNCrXjNnz-18" value="" style="endArrow=none;html=1;fontSize=20;fontColor=#FF0000;strokeColor=#FF0000;strokeWidth=2;curved=1;exitX=0;exitY=0.5;exitDx=0;exitDy=0;entryX=1;entryY=0.5;entryDx=0;entryDy=0;" edge="1" parent="1" source="HO5P-E8_m9CeNCrXjNnz-9" target="HO5P-E8_m9CeNCrXjNnz-9">
          <mxGeometry width="50" height="50" relative="1" as="geometry">
            <mxPoint x="560" y="460" as="sourcePoint" />
            <mxPoint x="610" y="410" as="targetPoint" />
            <Array as="points">
              <mxPoint x="550" y="380" />
              <mxPoint x="560" y="330" />
              <mxPoint x="660" y="340" />
            </Array>
          </mxGeometry>
        </mxCell>
        <mxCell id="HO5P-E8_m9CeNCrXjNnz-19" value="" style="endArrow=classic;html=1;fontSize=20;fontColor=#FF0000;strokeColor=#FF0000;strokeWidth=2;curved=1;" edge="1" parent="1">
          <mxGeometry width="50" height="50" relative="1" as="geometry">
            <mxPoint x="630" y="348" as="sourcePoint" />
            <mxPoint x="645" y="328" as="targetPoint" />
          </mxGeometry>
        </mxCell>
        <mxCell id="HO5P-E8_m9CeNCrXjNnz-20" value="" style="endArrow=classic;html=1;fontSize=20;fontColor=#FF0000;strokeColor=#FF0000;strokeWidth=2;curved=1;" edge="1" parent="1">
          <mxGeometry width="50" height="50" relative="1" as="geometry">
            <mxPoint x="563" y="410" as="sourcePoint" />
            <mxPoint x="538" y="410" as="targetPoint" />
          </mxGeometry>
        </mxCell>
        <mxCell id="HO5P-E8_m9CeNCrXjNnz-21" value="" style="endArrow=classic;html=1;fontSize=20;fontColor=#FF0000;strokeColor=#FF0000;strokeWidth=2;curved=1;" edge="1" parent="1">
          <mxGeometry width="50" height="50" relative="1" as="geometry">
            <mxPoint x="557" y="381" as="sourcePoint" />
            <mxPoint x="532" y="381" as="targetPoint" />
          </mxGeometry>
        </mxCell>
        <mxCell id="HO5P-E8_m9CeNCrXjNnz-22" value="" style="endArrow=none;html=1;fontSize=20;fontColor=#FF0000;strokeColor=#FF0000;strokeWidth=2;curved=1;" edge="1" parent="1">
          <mxGeometry width="50" height="50" relative="1" as="geometry">
            <mxPoint x="145" y="310" as="sourcePoint" />
            <mxPoint x="395" y="310" as="targetPoint" />
            <Array as="points">
              <mxPoint x="175" y="290" />
              <mxPoint x="345" y="320" />
            </Array>
          </mxGeometry>
        </mxCell>
        <mxCell id="HO5P-E8_m9CeNCrXjNnz-23" value="&lt;font color=&quot;#000000&quot; style=&quot;font-size: 30px&quot;&gt;the HONEYMOON&lt;br&gt;EXTENSIONS&lt;br&gt;&lt;/font&gt;" style="text;html=1;align=center;verticalAlign=middle;resizable=0;points=[];autosize=1;strokeColor=none;fillColor=none;fontSize=20;fontColor=#FF0000;" vertex="1" parent="1">
          <mxGeometry x="135" y="630" width="270" height="60" as="geometry" />
        </mxCell>
        <mxCell id="HO5P-E8_m9CeNCrXjNnz-24" value="" style="endArrow=none;html=1;fontSize=30;fontColor=#000000;strokeColor=#000000;strokeWidth=2;rounded=0;" edge="1" parent="1">
          <mxGeometry width="50" height="50" relative="1" as="geometry">
            <mxPoint x="185" y="700" as="sourcePoint" />
            <mxPoint x="355" y="700" as="targetPoint" />
          </mxGeometry>
        </mxCell>
        <mxCell id="HO5P-E8_m9CeNCrXjNnz-25" value="" style="endArrow=none;html=1;fontSize=30;fontColor=#000000;strokeColor=#000000;strokeWidth=2;rounded=0;" edge="1" parent="1">
          <mxGeometry width="50" height="50" relative="1" as="geometry">
            <mxPoint x="200" y="620" as="sourcePoint" />
            <mxPoint x="390" y="620" as="targetPoint" />
          </mxGeometry>
        </mxCell>
        <mxCell id="HO5P-E8_m9CeNCrXjNnz-26" value="DREAMSCAPE&lt;br&gt;INSPECTIONS" style="text;html=1;align=center;verticalAlign=middle;resizable=0;points=[];autosize=1;strokeColor=none;fillColor=none;fontSize=30;fontColor=#000000;" vertex="1" parent="1">
          <mxGeometry x="500" y="619.5" width="230" height="80" as="geometry" />
        </mxCell>
        <mxCell id="HO5P-E8_m9CeNCrXjNnz-27" value="Repetarea&amp;nbsp;&lt;br&gt;EXPERIENTIALA&lt;br&gt;a unui ANUME&lt;br&gt;EXTREMUM(MIN,MAX)&lt;br&gt;sau INFLEXIUNI (x=0)&lt;br&gt;e DECLANSATOR de REFLECTIE" style="text;html=1;align=left;verticalAlign=middle;resizable=0;points=[];autosize=1;strokeColor=none;fillColor=none;fontSize=30;fontColor=#000000;" vertex="1" parent="1">
          <mxGeometry x="410" y="750" width="480" height="220" as="geometry" />
        </mxCell>
        <mxCell id="HO5P-E8_m9CeNCrXjNnz-28" value="" style="endArrow=none;html=1;rounded=0;fontSize=30;fontColor=#000000;strokeColor=#000000;strokeWidth=2;" edge="1" parent="1">
          <mxGeometry width="50" height="50" relative="1" as="geometry">
            <mxPoint x="535" y="699.5" as="sourcePoint" />
            <mxPoint x="695" y="699.5" as="targetPoint" />
          </mxGeometry>
        </mxCell>
        <mxCell id="HO5P-E8_m9CeNCrXjNnz-29" value="" style="endArrow=none;html=1;rounded=0;fontSize=30;fontColor=#000000;strokeColor=#000000;strokeWidth=2;" edge="1" parent="1">
          <mxGeometry width="50" height="50" relative="1" as="geometry">
            <mxPoint x="535" y="619.5" as="sourcePoint" />
            <mxPoint x="695" y="619.5" as="targetPoint" />
          </mxGeometry>
        </mxCell>
        <mxCell id="HO5P-E8_m9CeNCrXjNnz-30" value="" style="endArrow=classic;html=1;rounded=0;fontSize=30;fontColor=#000000;strokeColor=#000000;strokeWidth=2;" edge="1" parent="1">
          <mxGeometry width="50" height="50" relative="1" as="geometry">
            <mxPoint x="425" y="650" as="sourcePoint" />
            <mxPoint x="505" y="650" as="targetPoint" />
          </mxGeometry>
        </mxCell>
        <mxCell id="HO5P-E8_m9CeNCrXjNnz-31" value="" style="endArrow=none;dashed=1;html=1;rounded=0;fontSize=30;fontColor=#000000;strokeColor=#000000;strokeWidth=2;" edge="1" parent="1">
          <mxGeometry width="50" height="50" relative="1" as="geometry">
            <mxPoint x="425" y="750" as="sourcePoint" />
            <mxPoint x="425" y="650" as="targetPoint" />
          </mxGeometry>
        </mxCell>
      </root>
    </mxGraphModel>
  </diagram>
</mxfile>
